<?xml version="1.0" encoding="utf-8"?>
<!-- Generator: Adobe Illustrator 17.0.0, SVG Export Plug-In . SVG Version: 6.00 Build 0)  -->
<!DOCTYPE svg PUBLIC "-//W3C//DTD SVG 1.1//EN" "http://www.w3.org/Graphics/SVG/1.1/DTD/svg11.dtd">
<svg version="1.1" id="Layer_1" xmlns="http://www.w3.org/2000/svg" xmlns:xlink="http://www.w3.org/1999/xlink" x="0px" y="0px"
	 width="277.311px" height="490.079px" viewBox="166.389 139.246 277.311 490.079"
	 enable-background="new 166.389 139.246 277.311 490.079" xml:space="preserve">
<g>
	<path fill="#383838" d="M413.1,244.913L311.737,143.55c-5.738-5.738-15.3-5.738-21.038,0l-21.038,21.038l26.775,26.775
		c5.737-1.912,13.388,0,19.125,3.825c5.737,3.825,5.737,11.475,3.825,19.125l24.862,24.863c5.737-1.912,13.388,0,19.125,3.825
		c7.65,7.65,7.65,17.212,0,24.863c-7.65,7.65-17.212,7.65-24.862,0c-5.737-5.738-5.737-13.388-3.825-19.125l-22.95-24.863v63.113
		c1.913,0,3.825,1.913,3.825,3.825c7.65,7.65,7.65,17.212,0,24.863c-7.65,7.65-19.125,7.65-24.863,0
		c-7.65-7.65-7.65-19.125,0-24.863c1.913-1.913,3.825-3.825,5.738-3.825v-61.2c-1.913,0-3.825-1.912-5.738-3.825
		c-5.737-5.738-5.737-13.387-3.825-19.125L260.1,176.062l-68.85,68.85c-5.738,5.738-5.738,15.3,0,21.038l101.363,101.363
		c5.737,5.737,15.3,5.737,21.037,0l99.45-99.45C418.837,260.212,418.837,250.65,413.1,244.913z"/>
</g>
<g>
	<path fill="#383838" d="M263.925,483.975c3.825,5.737,7.65,11.475,7.65,22.95c0,24.863-19.125,38.25-45.9,38.25
		c-7.65,0-13.387,0-17.212-1.913l-7.65,11.475l21.038,1.912c38.25,1.913,61.2,3.825,61.2,32.513c0,24.862-22.95,40.163-61.2,40.163
		c-40.163,0-55.462-9.562-55.462-26.775c0-9.562,3.825-15.3,11.475-22.95c-7.65-3.825-9.562-7.65-9.562-15.3
		c0-5.737,1.913-9.562,5.738-13.388s7.65-7.65,13.387-13.388c-11.475-5.737-19.125-17.212-19.125-32.513
		c0-24.862,17.212-42.075,49.725-42.075c9.562,0,15.3,0,21.038,1.913h42.075v19.125h-17.215V483.975z M198.9,585.337
		c-1.913,3.825-5.738,7.65-5.738,11.475c0,9.562,11.475,11.475,26.775,11.475c13.387,0,30.6-1.913,30.6-13.388
		c0-7.65-7.65-7.65-19.125-7.65L198.9,585.337z M221.85,483.975c-11.475,0-21.038,5.737-21.038,21.038
		c0,11.475,5.738,19.125,21.038,19.125c11.475,0,21.038-7.65,21.038-19.125C242.887,489.712,235.238,483.975,221.85,483.975z"/>
	<path fill="#383838" d="M294.525,575.775v-17.212L306,556.65c3.825,0,3.825-1.912,3.825-3.825V487.8c0-1.913,0-3.825-1.913-3.825
		l-11.475-3.825l1.913-17.212h45.9v91.8c0,3.825,0,3.825,3.825,3.825l11.475,1.913v17.212h-65.025L294.525,575.775L294.525,575.775z
		 M323.212,443.812c-13.388,0-19.125-7.65-19.125-19.125c0-13.388,7.65-19.125,19.125-19.125c13.388,0,19.125,7.65,19.125,19.125
		C342.337,438.075,334.688,443.812,323.212,443.812z"/>
	<path fill="#383838" d="M443.7,568.125c-9.562,3.825-22.95,9.562-36.337,9.562c-26.775,0-36.337-11.475-36.337-34.425v-57.375
		c0-1.913,0-1.913-1.913-1.913h-15.3V464.85c19.125-1.913,26.775-11.475,28.688-36.337h21.038v30.6c0,1.913,0,1.913,1.913,1.913
		h30.6v21.038h-32.513V533.7c0,13.388,3.825,17.212,15.3,17.212c5.737,0,13.388-1.912,17.212-3.825L443.7,568.125z"/>
</g>
</svg>
